<svg id="Calque_1" data-name="Calque 1" xmlns="http://www.w3.org/2000/svg" viewBox="0 0 1920 1080"><defs><style>.cls-1,.cls-8{fill:none;stroke-miterlimit:10;}.cls-1{stroke:#fff;stroke-width:4.36px;}.cls-2{fill:#c4cbda;}.cls-3{fill:#fffffe;}.cls-4{fill:#fff;}.cls-5{fill:#000008;}.cls-6{fill:#3b4865;}.cls-7{fill:#6349c0;}.cls-8{stroke:#000;stroke-width:0.54px;}</style></defs><title>spaceman</title><path class="cls-1" d="M963.5,585.72c4.9,1.66,14.34-21,22.34-50.66,21.8-80.65,122.07-67.57,117.72-30.51s52.31,111.17,172.2,71.93-48-61,21.8-122.07,133,0,133,0"/><path class="cls-2" d="M1522,483.56l-25.87,35.86c-20.76,28.77-56.95,35.49-85.72,14.73s-33.24-59-12.46-87.8l26.28-36.4Z"/><path class="cls-3" d="M1533.2,450.18,1441.56,577l-31.63-22.84,1.76-2.44,4.09-5.65a9.82,9.82,0,0,0-2.21-13.69l-3.55-2.55a9.77,9.77,0,0,0-10.55-.57,9.52,9.52,0,0,0-3.14,2.77l-4.33,6-1.49,2.07-32-23.11,8-11.12,83.59-115.66Z"/><ellipse class="cls-4" cx="1519.75" cy="384.3" rx="62.98" ry="75.56" transform="translate(361.5 1440.6) rotate(-56.56)"/><path class="cls-3" d="M1430.53,417.35s-2.7-1.11-7.1-2.42c-1.46-.43-3.12-.89-4.93-1.35-15.52-3.86-42.14-6.87-55.54,12.49-13.08,17.44,0,28.34,0,28.34s8.72,24-15.26,24-32.7-48-10.9-74.12c19.79-23.76,57.61-31.21,100.29-18.55,1.6.46,3.19,1,4.8,1.51,2.75.89,5.52,1.87,8.28,2.94C1498.11,408.63,1430.53,417.35,1430.53,417.35Z"/><ellipse class="cls-5" cx="1512.79" cy="391.51" rx="40.81" ry="61.06" transform="translate(352.36 1438.03) rotate(-56.56)"/><ellipse class="cls-6" cx="1526.45" cy="389.01" rx="12" ry="15.7" transform="translate(121.21 1100.82) rotate(-41.16)"/><ellipse class="cls-6" cx="1513.37" cy="417.35" rx="3.49" ry="4.56" transform="translate(99.32 1099.22) rotate(-41.16)"/><path class="cls-3" d="M1399.47,529.22v0l-10.27,13.6-6.65,8.83-38.8,51.42a13,13,0,0,1-11.55-1.92l-13.45-9.85a13.16,13.16,0,0,1-5.06-13.28l35.91-48.94,7.12-9.72,1.81-2.46,8-11.12a13.08,13.08,0,0,1,14.32.72l13.45,9.85A13.11,13.11,0,0,1,1399.47,529.22Z"/><path class="cls-3" d="M1445.23,572l-4.36,5.95-6.57,9-35.77,48.78a13.1,13.1,0,0,1-18.26,2.84l-11.64-8.55a13.09,13.09,0,0,1-5.26-12l38.8-53,1.27-1.7,5-6.8,1-1.24,8.76-11.55.48-.2.06,0a13,13,0,0,1,5.61-.68h0a12.88,12.88,0,0,1,6.47,2.44l11.62,8.55A13.09,13.09,0,0,1,1445.23,572Z"/><path class="cls-3" d="M1419.63,541.6l-1,1.77-.06,0-.48.2Z"/><path class="cls-3" d="M1578.76,583c-32.69-2.18-45.77-50.14-45.77-58.86,0-6.86-.72-25.89-10.34-37.92a25.74,25.74,0,0,0-3.4-3.6,25.27,25.27,0,0,0-6.47-4.25l20.42-28.21a63.05,63.05,0,0,1,4.76,4.43c1,1,2.15,2.24,3.38,3.61,9.46,10.73,23.62,31.59,22.16,59.41,0,26.15,30.52,37,30.52,37S1611.46,585.2,1578.76,583Z"/><polygon class="cls-7" points="1440.87 577.9 1434.3 586.86 1402.17 564.88 1403.44 563.18 1409.37 555.14 1440.87 577.9"/><polygon class="cls-7" points="1389.2 542.87 1382.56 551.7 1349.6 529.13 1356.72 519.41 1389.2 542.87"/><path class="cls-7" d="M1437.09,385.72l-18.59,27.86c1.81.46,3.47.92,4.93,1.35l18.46-27.7Z"/><path class="cls-7" d="M1541.34,458.22l-18.69,28a25.74,25.74,0,0,0-3.4-3.6l18.71-28C1539,455.63,1540.11,456.85,1541.34,458.22Z"/><ellipse class="cls-3" cx="1453.42" cy="348.69" rx="14.17" ry="7.63" transform="translate(518.73 1515.04) rotate(-64.78)"/><ellipse class="cls-3" cx="1573.31" cy="429.34" rx="14.17" ry="7.63" transform="translate(514.57 1669.79) rotate(-64.78)"/><path d="M1458.15,435.93l-.31.43-.2-.14-3.69,5.22-6.72-4.74,3.69-5.23-.2-.14.3-.43.84.59-.31.43-.2-.14-3.38,4.79,5.85,4.13,3.39-4.79-.2-.14.3-.43Zm-4.45,5.87-3.08,4.35.21.14-.31.44-.83-.59.3-.43.2.14,2.77-3.93-5.85-4.13-2.77,3.92.2.14-.31.44-.83-.59.3-.43.2.14,3.08-4.36Z"/><path d="M1469.83,444l-.44.62-15.92,2.74.46-.61,1.54-.27a5.49,5.49,0,0,1,1-3.39,5.72,5.72,0,0,1,8-1.37,5.59,5.59,0,0,1,2.11,2.85Zm-3,2a5.7,5.7,0,0,1-9,5,5.64,5.64,0,0,1-2.18-3.07l-3,.51.43-.62L1469,445.1l-.43.62Zm-9.92-2.65a4.9,4.9,0,0,0-.93,3l10-1.73a5.11,5.11,0,0,0-1.89-2.5A5.18,5.18,0,0,0,1456.94,443.37Zm9.39,2.74-10.11,1.75a5.24,5.24,0,0,0,2,2.73,5.17,5.17,0,0,0,7.2-1.26A5,5,0,0,0,1466.33,446.11Z"/><path d="M1481.92,453.38l-.51-.36-8,1.37-1.3-7.53-6.85,9.7-.93,1.37-.45-.31.94-1.37,7-9.95-.2-.14.3-.43.57.4,1.32,7.65,7.65-1.32.69.49Zm-7.31,9.76.2.14-.3.43-.84-.59.31-.43.2.14,6.16-8.73-7.77,1.34.43-.62,8.52-1.46Z"/><path d="M1484.44,463l-3.68-2.59,4-5.67,6.18,4.36-.45.63-.43-.3.13-.19-5.31-3.75-3.38,4.79,3.67,2.6Zm-1.1,6,.43.3-.45.64-6.19-4.38,3.37-4.77,3.32,2.34-.74.13-2.46-1.73-2.76,3.91,5.33,3.76Z"/><path d="M1449.55,449.12l.48.34-6.87,3.72-4,4.78-.48-.34,4-4.79Zm-3.76,12.9.23.16-.3.44-.84-.59.31-.43.12.08,3-4.85.57-5.3-4.81,2.31-4,4.76-.48-.34,4-4.77,6.08-3.1-.88,6.76Z"/><path d="M1455.63,460.26l-6.28,4.92-.14-.1,4.19-12.59-.21-.16.3-.43.84.59-.31.43-.17-.12-3.67,11.07,5.72-4.48Zm8.95-2.19-.31.44-.21-.16-11.27,9.26-.13-.09,1.68-5-4.16,3.27-.46-.33,5.69-4.45-1.78,5.31,10-8.26-.17-.12.3-.44Z"/><path d="M1467.07,461.49l.48.34-10.91,8.5-.48-.34Zm-3.76,12.9.23.17-.3.43-.83-.59.3-.43.12.08,3.23-9.71-8.51,6.63-.48-.33,10.1-7.88Z"/><path d="M1478,469.22l-6.46,2.9.53-6.43-.29-.21.3-.43.84.59-.31.43-.05,0-.41,5.21,5.34-2.39ZM1472,473l-3.53,5,.2.15-.31.43-.83-.59.3-.43.2.14,3.67-5.19,0,0,6.74-3,.51.36Z"/><line class="cls-8" x1="1444.01" y1="463.54" x2="1445.49" y2="461.61"/><line class="cls-8" x1="1445.19" y1="464.44" x2="1446.67" y2="462.51"/><line class="cls-8" x1="1445.54" y1="461.99" x2="1446.29" y2="462.56"/><line class="cls-8" x1="1447.08" y1="458.41" x2="1449.55" y2="460.29"/></svg>