<svg id="Calque_1" data-name="Calque 1" xmlns="http://www.w3.org/2000/svg" viewBox="0 0 1920 1080"><defs><style>.cls-1{fill:#fff;}</style></defs><title>bg</title><path class="cls-1" d="M1920,843.56V1080H0V0H1830.49c-2.13,14.26-28.36,176.43-126.3,195.19-83.72,16-145.63,16-194,7.17a298.91,298.91,0,0,1-30.52-7.17c-52.32-15.26-170,50.13-202.73,109S1113.45,430.61,1065.5,441.51,884.57,561.4,1024.08,762c16.81,24.15,45.86,43.33,84.06,58.33,2.52,1,5.1,2,7.69,2.92,94.58,34.75,240.53,45.78,394.36,44.73C1651.4,867,1799.24,855.86,1920,843.56Z"/></svg>