<svg id="Calque_1" data-name="Calque 1" xmlns="http://www.w3.org/2000/svg" viewBox="0 0 1920 1080"><defs><style>.cls-1{fill:#5f44b2;}.cls-2{fill:#2c2456;}</style></defs><title>mountain</title><path class="cls-1" d="M1921,745.68c-36.73-19.12-81-47.74-95.32-73.92-24.38-44.51-95.26-77.27-95.26-21.1s-24.38,79.63-28.8,67.93-35.44-32.79-48.74,11.7-46.52,72.59-59.82,72.59c-9.35,0-48.35-13.93-80.65-36.86q-3.69-2.61-7.2-5.38c-10.72-8.35-20.33-17.77-27.35-28-.26-.39-.53-.78-.79-1.15l-1-1.4c-28.45-39.45-62.93-36.55-86.8-4.47-24.35,32.79-53.17,28.1-75.32,28.1s-33.22-39.8-48.74-49.15-33.22-7-57.59,49.15a173,173,0,0,1-11.44,22.46c-.46.69-.88,1.35-1.29,2l0,0c-17.09,25.51-29.89,13.89-51.47,17.68-8.81,1.55-21.73,12.32-35.1,26.07l-.15.16c2.62.95,5.25,1.89,7.94,2.81,96.24,33.09,240.74,43.68,392.83,42.66,141.82-1,290.2-12,412.12-24.35Z"/><path class="cls-2" d="M1921,752.22v93.34c-120.76,12.3-268.6,23.41-409.81,24.37-153.83,1.05-299.78-10-394.36-44.73,13.21-13.6,26-24.28,34.68-25.81,21.23-3.72,33.83,7.7,50.64-17.39l0,0c.42-.64.83-1.29,1.27-2a167.42,167.42,0,0,0,11.27-22.1c24-55.28,41.41-57.59,56.67-48.37s26.16,48.37,48,48.37,50.14,4.62,74.12-27.64c23.47-31.59,57.41-34.44,85.4,4.38.33.46.66.92,1,1.37l.78,1.16c6.89,10.07,16.35,19.34,26.9,27.55,2.31,1.83,4.66,3.58,7.08,5.3,31.79,22.56,70.17,36.27,79.37,36.27,13.08,0,45.78-27.64,58.86-71.43s43.6-23,47.95-11.51,28.34-11.53,28.34-66.83,69.76-23,93.74,20.75C1837.58,704.07,1884.1,733.45,1921,752.22Z"/></svg>