<svg id="Calque_1" data-name="Calque 1" xmlns="http://www.w3.org/2000/svg" xmlns:xlink="http://www.w3.org/1999/xlink" viewBox="0 0 1920 1080"><defs><style>.cls-1{fill:url(#Dégradé_sans_nom_403);}.cls-2{fill:url(#Dégradé_sans_nom_403-2);}</style><linearGradient id="Dégradé_sans_nom_403" x1="1726.82" y1="252.08" x2="1811.54" y2="359.46" gradientUnits="userSpaceOnUse"><stop offset="0" stop-color="#5c98ec"/><stop offset="0.03" stop-color="#6691e4"/><stop offset="0.13" stop-color="#8879c7"/><stop offset="0.23" stop-color="#a266b1"/><stop offset="0.34" stop-color="#b559a1"/><stop offset="0.45" stop-color="#c05197"/><stop offset="0.57" stop-color="#c44e94"/><stop offset="0.67" stop-color="#c34a8d"/><stop offset="0.83" stop-color="#c0407a"/><stop offset="1" stop-color="#bc315c"/></linearGradient><linearGradient id="Dégradé_sans_nom_403-2" x1="1739.56" y1="289.97" x2="1907.51" y2="386.65" xlink:href="#Dégradé_sans_nom_403"/></defs><title>planet2</title><g id="Planet1"><circle class="cls-1" cx="1770.09" cy="306.92" r="68.39"/><path class="cls-2" d="M1702.56,309.14c-19.87,21.84-28.44,43.59-20.16,57.55,13.46,22.68,66.35,16.15,118.13-14.59s82.83-74,69.37-96.71c-8.87-15-34.89-17.21-66.42-8.21a81.59,81.59,0,0,0,10.15,6.76c19.88-3.23,35.48-.05,41.56,10.18,11.35,19.12-14.84,55.62-58.49,81.53s-88.23,31.42-99.58,12.3c-5.29-8.9-2.43-21.58,6.53-35.19"/></g></svg>