<svg id="Calque_1" data-name="Calque 1" xmlns="http://www.w3.org/2000/svg" xmlns:xlink="http://www.w3.org/1999/xlink" viewBox="0 0 1920 1080"><defs><style>.cls-1{fill:url(#Dégradé_sans_nom_448);}.cls-2{fill:url(#Dégradé_sans_nom_448-2);}</style><linearGradient id="Dégradé_sans_nom_448" x1="1266.72" y1="1062.9" x2="1337.77" y2="1141.39" gradientTransform="translate(1242.15 -945.49) rotate(34.69)" gradientUnits="userSpaceOnUse"><stop offset="0" stop-color="#efefac"/><stop offset="0.13" stop-color="#eccf90"/><stop offset="0.3" stop-color="#e8ae73"/><stop offset="0.43" stop-color="#e69961"/><stop offset="0.53" stop-color="#e5925a"/><stop offset="0.61" stop-color="#e58a53"/><stop offset="0.74" stop-color="#e4753e"/><stop offset="0.9" stop-color="#e3531d"/><stop offset="1" stop-color="#e23a05"/></linearGradient><linearGradient id="Dégradé_sans_nom_448-2" x1="1259.48" y1="1069.96" x2="1395.83" y2="1174.65" xlink:href="#Dégradé_sans_nom_448"/></defs><title>planet1</title><g id="Planet1"><circle class="cls-1" cx="1685.57" cy="701.92" r="52.94"/><path class="cls-2" d="M1646.32,667.36c-22.79,1.76-39.16,9.49-41.89,21.74-4.44,19.93,28.84,44.3,74.33,54.44s86,2.2,90.41-17.73c2.93-13.14-10.54-28.21-33.1-39.85a65.64,65.64,0,0,0,2.14,9.19c12.93,8.72,20,18.79,18,27.78-3.74,16.8-37.87,23.49-76.22,14.94s-66.4-29.09-62.66-45.88c1.74-7.83,10.07-13.46,22.35-16.38"/></g></svg>