<svg id="Calque_1" data-name="Calque 1" xmlns="http://www.w3.org/2000/svg" xmlns:xlink="http://www.w3.org/1999/xlink" viewBox="0 0 1920 1080"><defs><style>.cls-1{fill:url(#Dégradé_sans_nom_430);}.cls-2{fill:#19afab;}.cls-3{opacity:0.52;}</style><radialGradient id="Dégradé_sans_nom_430" cx="999.84" cy="703.05" fx="970.529429790294" r="96.08" gradientUnits="userSpaceOnUse"><stop offset="0" stop-color="#c3e99f"/><stop offset="0.14" stop-color="#bfe8a4"/><stop offset="0.31" stop-color="#b3e7b1"/><stop offset="0.48" stop-color="#9fe4c8"/><stop offset="0.61" stop-color="#8ce1de"/><stop offset="0.68" stop-color="#89e0de"/><stop offset="0.72" stop-color="#81ddde"/><stop offset="0.75" stop-color="#72d8dd"/><stop offset="0.78" stop-color="#5dd0dd"/><stop offset="0.81" stop-color="#42c6dc"/><stop offset="0.83" stop-color="#22bbdb"/><stop offset="0.84" stop-color="#15b6db"/></radialGradient></defs><title>planet3</title><circle class="cls-1" cx="1033.8" cy="709.45" r="50.14"/><path class="cls-2" d="M1053.08,679.39a3.63,3.63,0,0,1-2.91,1.19,4,4,0,0,1-3.78-4.67,3.66,3.66,0,0,1,1.76-2.6,4.38,4.38,0,0,0-1.1,2.67,3.84,3.84,0,0,0,3.19,3.94A4.31,4.31,0,0,0,1053.08,679.39Z"/><path class="cls-2" d="M1049.23,752.11a6.42,6.42,0,0,1-5,1.91,7,7,0,0,1-6.45-7.95,6.47,6.47,0,0,1,2.91-4.54,7.31,7.31,0,0,0-2.05,4.63,6.7,6.7,0,0,0,5.68,7A7.28,7.28,0,0,0,1049.23,752.11Z"/><g class="cls-3"><path class="cls-2" d="M991.9,723.58a3.7,3.7,0,0,1-2.9,1.1,4,4,0,0,1-3.71-4.57A3.69,3.69,0,0,1,987,717.5a4.15,4.15,0,0,0-1.18,2.66,3.83,3.83,0,0,0,.85,2.65,3.9,3.9,0,0,0,2.41,1.38A4.24,4.24,0,0,0,991.9,723.58Z"/></g><path class="cls-2" d="M1016.59,746.86a6.33,6.33,0,0,1-4.77,1.61,6.54,6.54,0,0,1-5.94-7.33,6.29,6.29,0,0,1,2.57-4.33,6.67,6.67,0,0,0-2.16,4.37,6.41,6.41,0,0,0,5.58,6.88A6.7,6.7,0,0,0,1016.59,746.86Z"/><g class="cls-3"><path class="cls-2" d="M1029,715a13.2,13.2,0,0,1-1.74,7.61,13.68,13.68,0,0,1-5.87,5.42,14,14,0,0,1-8,1.21,14,14,0,0,1-11.53-10.5,13,13,0,0,1-.37-4.08,12.69,12.69,0,0,1,.83-4,13.35,13.35,0,0,1,4.84-6.35,12.91,12.91,0,0,1,7.41-2.45,13.54,13.54,0,0,0-11,9.23,12.86,12.86,0,0,0,17.28,15.73A13.52,13.52,0,0,0,1029,715Z"/></g><path class="cls-2" d="M1011.69,680.13a5.9,5.9,0,0,1-1,4.09,6.22,6.22,0,0,1-3.58,2.44,6.11,6.11,0,0,1-4.35-.56,6.23,6.23,0,0,1-2.94-7.73,6.11,6.11,0,0,1,2.89-3.31,6.19,6.19,0,0,1,4.3-.55,5.88,5.88,0,0,1,3.47,2.39,5.92,5.92,0,0,0-7.45-1.27,5.72,5.72,0,0,0-2.48,3,5.67,5.67,0,0,0,2.58,6.79,5.69,5.69,0,0,0,3.84.6A5.94,5.94,0,0,0,1011.69,680.13Z"/><path class="cls-2" d="M996,692a6.46,6.46,0,0,0-.7,1.84,2.72,2.72,0,0,0,.2,1.83,3.72,3.72,0,0,0,1.28,1.37c.28.17.57.33.86.49s.61.26.91.42c-.33-.06-.65-.15-1-.23s-.63-.25-.94-.4a3.69,3.69,0,0,1-1.5-1.46,2.92,2.92,0,0,1-.14-2.09A4.47,4.47,0,0,1,996,692Z"/></svg>